# This file uses centimeters as units for non-parametric coordinates.

mtllib blok4.mtl
g default
v -0.511013 -0.530049 -0.515772
v 0.520531 -0.530049 -0.515772
v -0.511013 -0.530049 0.515772
v 0.520531 -0.530049 0.515772
v -0.511013 0.501494 0.515772
v 0.520531 0.501494 0.515772
v -0.511013 0.501494 -0.515772
v 0.520531 0.501494 -0.515772
vt 0.999114 0.999232
vt 1.998149 0.999232
vt 0.999114 1.998266
vt 1.998149 1.998266
vt 0.001743 1.001297
vt 1.000778 1.001297
vt 0.001743 0.002262
vt 1.000778 0.002262
vt 0.998661 1.998328
vt -0.000372 1.998328
vt 0.998661 0.999292
vt -0.000372 0.999292
vt 0.998831 -0.000752
vt 1.997865 -0.000752
vt 0.998831 0.998282
vt 1.997865 0.998282
vt 2.000000 0.000000
vt 2.999999 0.000000
vt 2.000001 1.000000
vt 2.999999 1.000000
vt 2.998042 -0.000618
vt 3.997076 -0.000618
vt 2.998042 0.998417
vt 3.997076 0.998417
vn 0.000000 -1.000000 0.000000
vn 0.000000 -1.000000 0.000000
vn 0.000000 -1.000000 0.000000
vn 0.000000 -1.000000 0.000000
vn 0.000000 -1.000000 0.000000
vn 0.000000 -1.000000 0.000000
vn 0.000000 0.000000 1.000000
vn 0.000000 0.000000 1.000000
vn 0.000000 0.000000 1.000000
vn 0.000000 0.000000 1.000000
vn 0.000000 0.000000 1.000000
vn 0.000000 0.000000 1.000000
vn 0.000000 1.000000 0.000000
vn 0.000000 1.000000 0.000000
vn 0.000000 1.000000 0.000000
vn 0.000000 1.000000 0.000000
vn 0.000000 1.000000 0.000000
vn 0.000000 1.000000 0.000000
vn 0.000000 0.000000 -1.000000
vn 0.000000 0.000000 -1.000000
vn 0.000000 0.000000 -1.000000
vn 0.000000 0.000000 -1.000000
vn 0.000000 0.000000 -1.000000
vn 0.000000 0.000000 -1.000000
vn 1.000000 0.000000 0.000000
vn 1.000000 0.000000 0.000000
vn 1.000000 0.000000 0.000000
vn 1.000000 0.000000 0.000000
vn 1.000000 0.000000 0.000000
vn 1.000000 0.000000 0.000000
vn -1.000000 0.000000 0.000000
vn -1.000000 0.000000 0.000000
vn -1.000000 0.000000 0.000000
vn -1.000000 0.000000 0.000000
vn -1.000000 0.000000 0.000000
vn -1.000000 0.000000 0.000000
s off
g initialShadingGroup pCube1
f 1/1/1 2/2/2 3/3/3
f 3/3/4 2/2/5 4/4/6
f 3/5/7 4/6/8 5/7/9
f 5/7/10 4/6/11 6/8/12
f 5/9/13 6/10/14 7/11/15
f 7/11/16 6/10/17 8/12/18
f 7/13/19 8/14/20 1/15/21
f 1/15/22 8/14/23 2/16/24
f 2/17/25 8/18/26 4/19/27
f 4/19/28 8/18/29 6/20/30
f 7/21/31 1/22/32 5/23/33
f 5/23/34 1/22/35 3/24/36
